HIERARCHY
ROOT hip
{
  OFFSET 0 0 0
  CHANNELS 6 Xposition Yposition Zposition Zrotation Yrotation Xrotation
  JOINT abdomen
  {
    OFFSET 0 20.6881 -0.73152
    CHANNELS 3 Zrotation Xrotation Yrotation
    JOINT chest
    {
      OFFSET 0 11.7043 -0.48768
      CHANNELS 3 Zrotation Xrotation Yrotation
      JOINT neck
      {
        OFFSET 0 22.1894 -2.19456
        CHANNELS 3 Zrotation Xrotation Yrotation
        JOINT head
        {
          OFFSET -0.24384 7.07133 1.2192
          CHANNELS 3 Zrotation Xrotation Yrotation
          JOINT leftEye
          {
            OFFSET 4.14528 8.04674 8.04672
            CHANNELS 3 Zrotation Xrotation Yrotation
            End Site
            {
              OFFSET 1 0 0
            }
          }
          JOINT rightEye
          {
            OFFSET -3.6576 8.04674 8.04672
            CHANNELS 3 Zrotation Xrotation Yrotation
            End Site
            {
              OFFSET 1 0 0
            }
          }
        }
      }
      JOINT rCollar
      {
        OFFSET -2.68224 19.2634 -4.8768
        CHANNELS 3 Zrotation Xrotation Yrotation
        JOINT rShldr
        {
          OFFSET -8.77824 -1.95073 1.46304
          CHANNELS 3 Zrotation Xrotation Yrotation
          JOINT rForeArm
          {
            OFFSET -28.1742 -1.7115 0.48768
            CHANNELS 3 Zrotation Xrotation Yrotation
            JOINT rHand
            {
              OFFSET -22.5879 0.773209 7.07136
              CHANNELS 3 Zrotation Xrotation Yrotation
              JOINT rThumb1
              {
                OFFSET -1.2192 -0.487915 3.41376
                CHANNELS 3 Zrotation Xrotation Yrotation
                JOINT rThumb2
                {
                  OFFSET -3.37035 -0.52449 3.41376
                  CHANNELS 3 Zrotation Xrotation Yrotation
                  End Site
                  {
                    OFFSET -1.78271 -1.18214 1.43049
                  }
                }
              }
              JOINT rIndex1
              {
                OFFSET -7.75947 0.938293 5.60832
                CHANNELS 3 Zrotation Xrotation Yrotation
                JOINT rIndex2
                {
                  OFFSET -2.54057 -0.884171 1.56538
                  CHANNELS 3 Zrotation Xrotation Yrotation
                  End Site
                  {
                    OFFSET -1.62519 -0.234802 1.16502
                  }
                }
              }
              JOINT rMid1
              {
                OFFSET -8.24714 1.18213 3.41376
                CHANNELS 3 Zrotation Xrotation Yrotation
                JOINT rMid2
                {
                  OFFSET -3.10165 -0.590103 1.0647
                  CHANNELS 3 Zrotation Xrotation Yrotation
                  End Site
                  {
                    OFFSET -2.48547 -0.328903 0.83742
                  }
                }
              }
              JOINT rRing1
              {
                OFFSET -8.82822 0.546677 1.51678
                CHANNELS 3 Zrotation Xrotation Yrotation
                JOINT rRing2
                {
                  OFFSET -2.60934 -0.819778 -0.0198488
                  CHANNELS 3 Zrotation Xrotation Yrotation
                  End Site
                  {
                    OFFSET -2.33842 -0.294052 0.168128
                  }
                }
              }
              JOINT rPinky1
              {
                OFFSET -8.27202 -0.0477905 -0.4584
                CHANNELS 3 Zrotation Xrotation Yrotation
                JOINT rPinky2
                {
                  OFFSET -1.82734 -0.647385 -0.700984
                  CHANNELS 3 Zrotation Xrotation Yrotation
                  End Site
                  {
                    OFFSET -1.69225 -0.51767 -0.607171
                  }
                }
              }
            }
          }
        }
      }
      JOINT lCollar
      {
        OFFSET 2.68224 19.2634 -4.8768
        CHANNELS 3 Zrotation Xrotation Yrotation
        JOINT lShldr
        {
          OFFSET 8.77824 -1.95073 1.46304
          CHANNELS 3 Zrotation Xrotation Yrotation
          JOINT lForeArm
          {
            OFFSET 28.1742 -1.7115 0.48768
            CHANNELS 3 Zrotation Xrotation Yrotation
            JOINT lHand
            {
              OFFSET 22.5879 0.773209 7.07136
              CHANNELS 3 Zrotation Xrotation Yrotation
              JOINT lThumb1
              {
                OFFSET 1.2192 -0.487915 3.41376
                CHANNELS 3 Zrotation Xrotation Yrotation
                JOINT lThumb2
                {
                  OFFSET 3.37035 -0.52449 3.41376
                  CHANNELS 3 Zrotation Xrotation Yrotation
                  End Site
                  {
                    OFFSET 1.78271 -1.18214 1.43049
                  }
                }
              }
              JOINT lIndex1
              {
                OFFSET 7.75947 0.938293 5.60832
                CHANNELS 3 Zrotation Xrotation Yrotation
                JOINT lIndex2
                {
                  OFFSET 2.54057 -0.884171 1.56538
                  CHANNELS 3 Zrotation Xrotation Yrotation
                  End Site
                  {
                    OFFSET 1.62519 -0.234802 1.16502
                  }
                }
              }
              JOINT lMid1
              {
                OFFSET 8.24714 1.18213 3.41376
                CHANNELS 3 Zrotation Xrotation Yrotation
                JOINT lMid2
                {
                  OFFSET 3.10165 -0.590103 1.0647
                  CHANNELS 3 Zrotation Xrotation Yrotation
                  End Site
                  {
                    OFFSET 2.48547 -0.328903 0.83742
                  }
                }
              }
              JOINT lRing1
              {
                OFFSET 8.82822 0.546677 1.51678
                CHANNELS 3 Zrotation Xrotation Yrotation
                JOINT lRing2
                {
                  OFFSET 2.60934 -0.819778 -0.0198488
                  CHANNELS 3 Zrotation Xrotation Yrotation
                  End Site
                  {
                    OFFSET 2.33842 -0.294052 0.168128
                  }
                }
              }
              JOINT lPinky1
              {
                OFFSET 8.27202 -0.0477905 -0.4584
                CHANNELS 3 Zrotation Xrotation Yrotation
                JOINT lPinky2
                {
                  OFFSET 1.82734 -0.647385 -0.700984
                  CHANNELS 3 Zrotation Xrotation Yrotation
                  End Site
                  {
                    OFFSET 1.69225 -0.51767 -0.607171
                  }
                }
              }
            }
          }
        }
      }
    }
  }
  JOINT rButtock
  {
    OFFSET -8.77824 4.35084 1.2192
    CHANNELS 3 Zrotation Xrotation Yrotation
    JOINT rThigh
    {
      OFFSET 0 -1.70687 -2.19456
      CHANNELS 3 Zrotation Xrotation Yrotation
      JOINT rShin
      {
        OFFSET 0 -36.8199 0.73152
        CHANNELS 3 Zrotation Xrotation Yrotation
        JOINT rFoot
        {
          OFFSET 0.73152 -45.1104 -5.12064
          CHANNELS 3 Zrotation Xrotation Yrotation
          End Site
          {
            OFFSET -1.1221 -3.69964 12.103
          }
        }
      }
    }
  }
  JOINT lButtock
  {
    OFFSET 8.77824 4.35084 1.2192
    CHANNELS 3 Zrotation Xrotation Yrotation
    JOINT lThigh
    {
      OFFSET 0 -1.70687 -2.19456
      CHANNELS 3 Zrotation Xrotation Yrotation
      JOINT lShin
      {
        OFFSET 0 -36.8199 0.73152
        CHANNELS 3 Zrotation Xrotation Yrotation
        JOINT lFoot
        {
          OFFSET -0.73152 -45.1104 -5.12064
          CHANNELS 3 Zrotation Xrotation Yrotation
          End Site
          {
            OFFSET 1.1221 -3.69964 12.103
          }
        }
      }
    }
  }
}
MOTION
Frames:	7
Frame Time:	0.00833333
0.635485 144.813 -34.7548 6.159 -48.8091 1.2634 -6.0422 3.48463 3.99813 1.41483 -1.48985 1.00511 -8.66804 1.69411 4.26916 -3.99143 27.0016 10.0255 -0.0 0.0 0.0 -0.0 0.0 0.0 9.91919e-14 2.1736e-13 5.80589e-13 72.3425 9.90244 2.78235 -16.4315 -9.09434 30.5888 -0.541192 20.447 3.00332 -4.80363e-09 3.16635e-09 -1.80725e-10 -8.29836e-09 5.495e-09 -2.22466e-10 -4.80363e-09 3.16635e-09 -1.80734e-10 7.73091 5.47488 0.417314 -4.80363e-09 3.16635e-09 -1.80725e-10 2.90554 0.965183 0.102902 -4.80362e-09 3.16635e-09 -1.80725e-10 10.2786 0.731801 0.0259123 -4.80363e-09 3.16635e-09 -1.80717e-10 2.22167 -0.733487 -0.20892 9.90563e-14 2.17337e-13 5.80374e-13 -81.3361 9.81215 -0.0888828 13.7676 -6.76832 -25.088 0.0606783 7.0934 -1.00192 -4.93816e-09 1.12061e-09 4.04982e-10 -8.53615e-09 1.99385e-09 7.42337e-10 -4.93816e-09 1.12062e-09 4.05001e-10 -7.73091 5.47488 -0.417314 -4.93816e-09 1.12062e-09 4.04989e-10 -2.90554 0.965183 -0.102902 -4.93817e-09 1.12061e-09 4.04982e-10 -10.2786 0.731801 -0.0259123 -4.93816e-09 1.12062e-09 4.04976e-10 -2.22167 -0.733487 0.20892 -2.03217e-16 0.0 -3.88251e-19 -12.5448 -26.6456 -17.0875 -0.582947 49.9763 1.16623 -6.9959 -14.6912 -17.1451 2.03217e-16 0.0 3.88251e-19 -8.35951 -21.4235 3.48795 -0.027794 24.5041 -0.1776 0.59814 -5.05416 -0.820624
0.580878 144.821 -34.6611 6.2208 -48.0266 1.2816 -6.01713 3.4663 3.91206 1.53719 -1.51952 0.98002 -8.62786 1.77165 4.32811 -4.148 26.962 10.1805 -0.0 0.0 0.0 -0.0 0.0 0.0 7.51353e-14 1.77597e-13 6.66398e-13 72.449 9.8343 2.55817 -16.3663 -9.032 30.4496 -0.569546 20.9519 3.0844 -4.99432e-09 3.48659e-09 -1.70866e-10 -8.62696e-09 6.04777e-09 -2.00006e-10 -4.99432e-09 3.4866e-09 -1.70875e-10 7.73091 5.47488 0.417314 -4.99432e-09 3.4866e-09 -1.70862e-10 2.90554 0.965183 0.102902 -4.99431e-09 3.4866e-09 -1.70866e-10 10.2786 0.731801 0.0259123 -4.99432e-09 3.4866e-09 -1.70856e-10 2.22167 -0.733487 -0.20892 7.50857e-14 1.77582e-13 6.66233e-13 -81.3236 10.6298 0.00264652 13.9141 -6.88515 -25.3817 0.0467283 6.29887 -0.888617 -4.73611e-09 1.47064e-09 7.7442e-10 -8.18529e-09 2.59473e-09 1.37679e-09 -4.73611e-09 1.47065e-09 7.74438e-10 -7.73091 5.47488 -0.417314 -4.7361e-09 1.47065e-09 7.74423e-10 -2.90554 0.965183 -0.102902 -4.73611e-09 1.47064e-09 7.74417e-10 -10.2786 0.731801 -0.0259123 -4.73611e-09 1.47065e-09 7.74409e-10 -2.22167 -0.733487 0.20892 -2.03217e-16 0.0 -3.88251e-19 -12.5573 -26.7934 -16.6802 -0.60036 50.3233 1.15234 -6.47375 -13.7478 -16.4754 2.03217e-16 0.0 3.88251e-19 -8.41717 -21.2466 3.11775 -0.0285045 24.3366 -0.175875 0.546366 -5.05313 -1.21787
0.484516 144.828 -34.6294 6.0867 -47.1333 1.2891 -5.91152 3.46941 3.81032 1.64896 -1.55784 0.951249 -8.57829 1.8445 4.38994 -4.31788 26.9151 10.3433 -0.0 0.0 0.0 -0.0 0.0 0.0 5.47804e-14 1.32826e-13 6.57586e-13 72.5594 9.75458 2.34192 -16.2993 -8.96827 30.3071 -0.60039 21.4725 3.16884 -4.61464e-09 3.34052e-09 -1.57818e-10 -7.97071e-09 5.79246e-09 -1.82878e-10 -4.61464e-09 3.34053e-09 -1.57827e-10 7.73091 5.47488 0.417314 -4.61464e-09 3.34053e-09 -1.57811e-10 2.90554 0.965183 0.102902 -4.61463e-09 3.34053e-09 -1.57817e-10 10.2786 0.731801 0.0259123 -4.61464e-09 3.34052e-09 -1.57806e-10 2.22167 -0.733487 -0.20892 5.48138e-14 1.3282e-13 6.57467e-13 -81.2968 11.4344 0.0877668 14.0584 -7.00156 -25.6717 0.0354771 5.47405 -0.771545 -4.10445e-09 1.42022e-09 9.00483e-10 -7.093e-09 2.49765e-09 1.58699e-09 -4.10445e-09 1.42022e-09 9.005e-10 -7.73091 5.47488 -0.417314 -4.10445e-09 1.42022e-09 9.00482e-10 -2.90554 0.965183 -0.102902 -4.10445e-09 1.42021e-09 9.00478e-10 -10.2786 0.731801 -0.0259123 -4.10445e-09 1.42022e-09 9.00468e-10 -2.22167 -0.733487 0.20892 -2.03217e-16 0.0 -3.88251e-19 -12.425 -26.8676 -16.1706 -0.612233 50.5073 1.1328 -5.97068 -12.8593 -15.7684 2.03217e-16 0.0 3.88251e-19 -8.39557 -21.0968 2.72598 -0.0285656 24.2375 -0.175763 0.494908 -5.08051 -1.60183
0.318262 144.833 -34.6692 5.429 -46.1801 1.605 -5.7587 3.53882 3.68886 1.74017 -1.6086 0.91702 -8.54155 1.89551 4.43393 -4.43552 26.8707 10.467 -0.0 0.0 0.0 -0.0 0.0 0.0 4.0937e-14 1.01778e-13 5.31202e-13 72.6881 9.68774 2.16672 -16.2313 -8.90387 30.1624 -0.623642 21.8485 3.23034 -3.64827e-09 2.64565e-09 -1.87608e-10 -6.30244e-09 4.58727e-09 -2.52042e-10 -3.64827e-09 2.64566e-09 -1.87618e-10 7.73091 5.47488 0.417314 -3.64827e-09 2.64566e-09 -1.87599e-10 2.90554 0.965183 0.102902 -3.64826e-09 2.64566e-09 -1.87607e-10 10.2786 0.731801 0.0259123 -3.64827e-09 2.64566e-09 -1.87595e-10 2.22167 -0.733487 -0.20892 4.10147e-14 1.01778e-13 5.31103e-13 -81.2312 12.122 0.12178 14.2034 -7.11978 -25.9643 0.0289035 4.84725 -0.682882 -3.16638e-09 1.0528e-09 7.59672e-10 -5.47177e-09 1.85027e-09 1.33473e-09 -3.16638e-09 1.0528e-09 7.59688e-10 -7.73091 5.47488 -0.417314 -3.16637e-09 1.05281e-09 7.59669e-10 -2.90554 0.965183 -0.102902 -3.16638e-09 1.05279e-09 7.59667e-10 -10.2786 0.731801 -0.0259123 -3.16638e-09 1.0528e-09 7.59656e-10 -2.22167 -0.733487 0.20892 -2.03217e-16 0.0 -3.88251e-19 -12.1873 -26.8668 -15.5601 -0.617394 50.5368 1.11196 -5.55306 -12.246 -15.0536 2.03217e-16 0.0 3.88251e-19 -8.31637 -20.9884 2.33195 -0.0285166 24.2298 -0.177208 0.434962 -5.12892 -2.02963
0.191259 144.829 -34.6786 5.0084 -45.1382 1.7712 -5.51973 3.72554 3.54894 1.79366 -1.67692 0.877147 -8.51529 1.92213 4.45174 -4.48188 26.8128 10.5315 -0.0 0.0 0.0 -0.0 0.0 0.0 4.74386e-14 1.02681e-13 1.73546e-13 72.8469 9.6327 2.04765 -16.1616 -8.8382 30.0144 -0.634535 22.0217 3.2588 -1.4487e-09 7.71547e-10 -3.31086e-10 -2.50717e-09 1.3408e-09 -5.42947e-10 -1.4487e-09 7.71553e-10 -3.31097e-10 7.73091 5.47488 0.417314 -1.44871e-09 7.71552e-10 -3.31077e-10 2.90554 0.965183 0.102902 -1.44869e-09 7.71552e-10 -3.31085e-10 10.2786 0.731801 0.0259123 -1.44871e-09 7.71551e-10 -3.31074e-10 2.22167 -0.733487 -0.20892 4.75024e-14 1.02683e-13 1.73428e-13 -81.1056 12.6596 0.0759174 14.3571 -7.24654 -26.2747 0.0251632 4.46427 -0.628767 -1.56602e-09 -1.03057e-10 2.22709e-11 -2.70738e-09 -1.66602e-10 4.77409e-11 -1.56602e-09 -1.0306e-10 2.22845e-11 -7.73091 5.47488 -0.417314 -1.56602e-09 -1.0305e-10 2.22679e-11 -2.90554 0.965183 -0.102902 -1.56602e-09 -1.03066e-10 2.22664e-11 -10.2786 0.731801 -0.0259123 -1.56602e-09 -1.03054e-10 2.22568e-11 -2.22167 -0.733487 0.20892 -2.03217e-16 0.0 -3.88251e-19 -11.8023 -26.7432 -14.8412 -0.614852 50.3833 1.09046 -5.22635 -11.9887 -14.3207 2.03217e-16 0.0 3.88251e-19 -8.14102 -20.9157 1.94673 -0.0284498 24.3535 -0.180611 0.362471 -5.21074 -2.52419
0.122787 144.823 -34.636 4.9948 -44.0269 1.7526 -5.19169 3.99269 3.39195 1.81951 -1.75939 0.832483 -8.4903 1.93284 4.45536 -4.4925 26.7425 10.5642 -0.0 0.0 0.0 -0.0 0.0 0.0 6.84253e-14 1.21134e-13 -3.67283e-13 73.0256 9.57906 1.96492 -16.09 -8.77112 29.8627 -0.638282 22.083 3.26883 1.76129e-09 -2.035e-09 -5.44178e-10 3.03138e-09 -3.52012e-09 -9.7446e-10 1.76129e-09 -2.03499e-09 -5.44191e-10 7.73091 5.47488 0.417314 1.76129e-09 -2.03499e-09 -5.44173e-10 2.90554 0.965183 0.102902 1.7613e-09 -2.03499e-09 -5.44179e-10 10.2786 0.731801 0.0259123 1.76129e-09 -2.03499e-09 -5.44169e-10 2.22167 -0.733487 -0.20892 6.84393e-14 1.21135e-13 -3.67444e-13 -80.9354 13.1045 -0.0208939 14.5152 -7.37845 -26.5952 0.0223903 4.20842 -0.592597 6.32747e-10 -1.9273e-09 -1.19137e-09 1.08987e-09 -3.34552e-09 -2.06625e-09 6.3275e-10 -1.9273e-09 -1.19136e-09 -7.73091 5.47488 -0.417314 6.3275e-10 -1.9273e-09 -1.19137e-09 -2.90554 0.965183 -0.102902 6.32742e-10 -1.92731e-09 -1.19137e-09 -10.2786 0.731801 -0.0259123 6.32746e-10 -1.9273e-09 -1.19138e-09 -2.22167 -0.733487 0.20892 -2.03217e-16 0.0 -3.88251e-19 -11.2743 -26.5091 -14.0193 -0.605978 50.0527 1.06656 -4.94491 -11.966 -13.5541 2.03217e-16 0.0 3.88251e-19 -7.87394 -20.8742 1.5576 -0.0280606 24.5853 -0.18588 0.281171 -5.32492 -3.05263
0.0210339 144.821 -34.7359 4.7138 -42.9355 1.7294 -4.86213 4.25324 3.21391 1.84863 -1.84707 0.7828 -8.47856 1.92706 4.45452 -4.48395 26.6952 10.5903 -0.0 0.0 0.0 -0.0 0.0 0.0 7.71665e-14 1.26927e-13 -8.71533e-13 73.2062 9.53724 1.89931 -16.0181 -8.70403 29.7107 -0.638847 22.095 3.27074 4.69418e-09 -4.54057e-09 -7.00528e-10 8.09226e-09 -7.85997e-09 -1.30267e-09 4.69418e-09 -4.54057e-09 -7.00543e-10 7.73091 5.47488 0.417314 4.69418e-09 -4.54057e-09 -7.00526e-10 2.90554 0.965183 0.102902 4.69418e-09 -4.54057e-09 -7.0053e-10 10.2786 0.731801 0.0259123 4.69418e-09 -4.54057e-09 -7.00521e-10 2.22167 -0.733487 -0.20892 7.71223e-14 1.26927e-13 -8.71744e-13 -80.7504 13.4879 -0.126943 14.6631 -7.50275 -26.8969 0.0205425 4.06424 -0.572187 2.67714e-09 -3.44921e-09 -2.22965e-09 4.6207e-09 -5.99891e-09 -3.8754e-09 2.67714e-09 -3.44921e-09 -2.22965e-09 -7.73091 5.47488 -0.417314 2.67714e-09 -3.44921e-09 -2.22965e-09 -2.90554 0.965183 -0.102902 2.67713e-09 -3.44921e-09 -2.22965e-09 -10.2786 0.731801 -0.0259123 2.67714e-09 -3.44921e-09 -2.22966e-09 -2.22167 -0.733487 0.20892 -2.03217e-16 0.0 -3.88251e-19 -10.7092 -26.2544 -13.1134 -0.59313 49.6044 1.04108 -4.6911 -12.0964 -12.7727 2.03217e-16 0.0 3.88251e-19 -7.60215 -20.8801 1.1479 -0.027295 24.8522 -0.192214 0.194775 -5.4439 -3.58831
